<svg width="50" height="50" viewBox="0 0 50 50" fill="none" xmlns="http://www.w3.org/2000/svg">
<path d="M24.9421 45.35C27.6232 45.35 30.2781 44.8219 32.7552 43.7959C35.2322 42.7698 37.483 41.2659 39.3788 39.3701C41.2747 37.4742 42.7786 35.2235 43.8046 32.7464C44.8306 30.2694 45.3587 27.6145 45.3587 24.9333C45.3587 22.2522 44.8306 19.5973 43.8046 17.1202C42.7786 14.6431 41.2747 12.3924 39.3788 10.4966C37.483 8.6007 35.2322 7.09681 32.7552 6.07078C30.2781 5.04475 27.6232 4.51665 24.9421 4.51665C19.5272 4.51666 14.3342 6.66769 10.5053 10.4966C6.67643 14.3254 4.52539 19.5185 4.52539 24.9333C4.52539 30.3482 6.67643 35.5412 10.5053 39.3701C14.3342 43.199 19.5272 45.35 24.9421 45.35ZM24.9421 7.91943C26.2147 7.91943 27.9195 9.13082 29.4099 12.4043C29.7298 13.1143 30.0247 13.8879 30.2946 14.725H19.5895C19.837 13.9342 20.1325 13.1592 20.4742 12.4043C21.9646 9.13082 23.6728 7.91943 24.9421 7.91943ZM17.3777 10.9955C16.8627 12.1298 16.417 13.373 16.0404 14.725H11.3309C13.124 12.3323 15.516 10.4545 18.2658 9.28054C17.9429 9.83788 17.6465 10.4102 17.3777 10.9955ZM15.2884 18.1278C14.9138 20.3768 14.7283 22.6533 14.7337 24.9333C14.7337 27.3119 14.9277 29.6053 15.2884 31.7389H9.34372C8.40855 29.5919 7.92664 27.2751 7.92817 24.9333C7.92817 22.5139 8.43178 20.2103 9.34372 18.1278H15.2884ZM16.0404 35.1417C16.417 36.4937 16.8627 37.7368 17.3777 38.8711C17.6476 39.4655 17.9425 40.0371 18.2624 40.5861C15.5138 39.4117 13.1231 37.5338 11.3309 35.1417H16.0404ZM19.5895 35.1417H30.2946C30.0471 35.9325 29.7516 36.7075 29.4099 37.4623C27.9195 40.7358 26.2113 41.9472 24.9421 41.9472C23.6694 41.9472 21.9646 40.7358 20.4742 37.4623C20.1325 36.7075 19.837 35.9325 19.5895 35.1417ZM31.1385 31.7389H18.749C18.3378 29.4938 18.1327 27.2158 18.1365 24.9333C18.1365 22.5037 18.3543 20.2035 18.7456 18.1278H31.1351C31.5264 20.2035 31.7442 22.5037 31.7442 24.9333C31.7442 27.3629 31.5264 29.6632 31.1351 31.7389M33.8403 35.1417H38.5532C36.7601 37.5343 34.3682 39.4122 31.6183 40.5861C31.9427 40.0371 32.2376 39.4655 32.503 38.8711C33.0225 37.7368 33.4694 36.4937 33.8437 35.1417M40.5404 31.7389H34.5957C34.9703 29.4898 35.1558 27.2133 35.1504 24.9333C35.1504 22.5548 34.9564 20.2647 34.5957 18.1278H40.5404C41.4523 20.2103 41.9559 22.5139 41.9559 24.9333C41.9559 27.3527 41.4523 29.6564 40.5404 31.7389ZM31.6183 9.28054C34.3682 10.4545 36.7601 12.3323 38.5532 14.725H33.8437C33.4953 13.4491 33.0482 12.2022 32.5064 10.9955C32.2387 10.4103 31.9435 9.83795 31.6217 9.28054" fill="#A9A9A9"/>
</svg>
